<?xml version="1.0" standalone="no"?>
<!DOCTYPE svg PUBLIC "-//W3C//DTD SVG 1.1//EN" "http://www.w3.org/Graphics/SVG/1.1/DTD/svg11.dtd">
<svg xmlns="http://www.w3.org/2000/svg" width="453" height="263" viewBox="0 0 453 263" fill="none">
<path d="M23.3106 246.248C25.3845 245.341 27.1298 243.819 28.3106 241.888C29.4875 239.816 30.0721 237.46 30.0006 235.078C30.0582 232.68 29.4785 230.309 28.3206 228.208C27.1839 226.244 25.4839 224.666 23.4406 223.678C21.0313 222.548 18.3904 222 15.7306 222.078H1.29062C0.948491 222.078 0.620375 222.214 0.378453 222.456C0.136531 222.698 0.000620347 223.026 0.000620347 223.368V260.588C-0.00473857 260.761 0.0246675 260.933 0.0870925 261.094C0.149517 261.255 0.243688 261.402 0.364014 261.526C0.484339 261.65 0.628366 261.749 0.787542 261.816C0.946717 261.883 1.1178 261.918 1.29062 261.918H7.12062C7.29003 261.918 7.45777 261.884 7.61428 261.82C7.77079 261.755 7.913 261.66 8.03279 261.54C8.15257 261.42 8.2476 261.278 8.31242 261.122C8.37725 260.965 8.41062 260.797 8.41062 260.628V247.768H14.5606L21.7306 261.198C21.8412 261.404 22.0056 261.576 22.2064 261.696C22.4072 261.816 22.6368 261.878 22.8706 261.878H29.2106C29.4345 261.878 29.6545 261.819 29.849 261.708C30.0434 261.597 30.2056 261.437 30.3196 261.245C30.4336 261.052 30.4955 260.833 30.4992 260.609C30.5029 260.385 30.4482 260.164 30.3406 259.968L22.9306 246.398C23.0606 246.348 23.1906 246.308 23.3106 246.248ZM8.41062 228.918H14.0906C15.4588 228.874 16.821 229.116 18.0906 229.628C19.0926 230.037 19.9322 230.765 20.4806 231.698C21.0384 232.72 21.3113 233.874 21.2706 235.038C21.3129 236.183 21.0396 237.318 20.4806 238.318C19.9335 239.232 19.0954 239.936 18.1006 240.318C16.8227 240.795 15.4641 241.019 14.1006 240.978H8.41062V228.918Z" fill="#6CAADD"/>
<path d="M48.6406 261.918H51.8706C52.04 261.918 52.2078 261.884 52.3643 261.82C52.5208 261.755 52.663 261.66 52.7828 261.54C52.9026 261.42 52.9976 261.278 53.0624 261.122C53.1273 260.965 53.1606 260.797 53.1606 260.628V236.728H58.3006C58.6427 236.728 58.9709 236.592 59.2128 236.35C59.4547 236.108 59.5906 235.78 59.5906 235.438V233.318C59.5906 232.976 59.4547 232.648 59.2128 232.406C58.9709 232.164 58.6427 232.028 58.3006 232.028H53.1606V229.348C53.0944 228.273 53.4135 227.209 54.0606 226.348C54.456 225.968 54.9286 225.677 55.4462 225.496C55.9639 225.315 56.5145 225.247 57.0606 225.298C57.5823 225.277 58.1042 225.331 58.6106 225.458C58.7375 225.52 58.877 225.553 59.0185 225.553C59.1599 225.554 59.2996 225.522 59.4269 225.46C59.5542 225.399 59.6657 225.309 59.753 225.197C59.8403 225.086 59.901 224.956 59.9306 224.818L60.6606 222.268C60.7105 222.102 60.7264 221.929 60.7073 221.757C60.6881 221.585 60.6345 221.419 60.5494 221.269C60.4644 221.118 60.3498 220.986 60.2125 220.881C60.0752 220.777 59.9181 220.7 59.7506 220.658L59.1706 220.518C58.1834 220.318 57.1777 220.225 56.1706 220.238C54.657 220.224 53.1586 220.541 51.7806 221.168C50.4709 221.761 49.3574 222.715 48.5706 223.918C47.7136 225.313 47.2891 226.931 47.3506 228.568V232.028H44.0006C43.6585 232.028 43.3304 232.164 43.0885 232.406C42.8465 232.648 42.7106 232.976 42.7106 233.318V235.398C42.7106 235.74 42.8465 236.068 43.0885 236.31C43.3304 236.552 43.6585 236.688 44.0006 236.688H47.3406V260.588C47.3352 260.761 47.3649 260.934 47.428 261.096C47.491 261.258 47.5861 261.405 47.7075 261.53C47.8289 261.654 47.9741 261.752 48.1344 261.819C48.2948 261.886 48.467 261.919 48.6406 261.918Z" fill="#6CAADD"/>
<path d="M65.9106 260.558C68.1467 261.817 70.6695 262.478 73.2356 262.478C75.8018 262.478 78.3246 261.817 80.5606 260.558C82.6552 259.258 84.3399 257.393 85.4206 255.178C86.5612 252.628 87.1507 249.866 87.1507 247.073C87.1507 244.28 86.5612 241.518 85.4206 238.968C84.3437 236.742 82.6587 234.866 80.5606 233.558C78.3246 232.299 75.8018 231.637 73.2356 231.637C70.6695 231.637 68.1467 232.299 65.9106 233.558C63.8089 234.862 62.123 236.739 61.0506 238.968C59.9101 241.518 59.3205 244.28 59.3205 247.073C59.3205 249.866 59.9101 252.628 61.0506 255.178C62.1249 257.398 63.8111 259.264 65.9106 260.558ZM66.0506 241.808C66.5559 240.288 67.4775 238.94 68.7106 237.918C70.0036 236.909 71.6122 236.392 73.2506 236.458C74.8798 236.392 76.479 236.91 77.7606 237.918C78.9844 238.93 79.902 240.263 80.4106 241.768C81.5703 245.182 81.5703 248.884 80.4106 252.298C79.9021 253.797 78.9841 255.124 77.7606 256.128C76.4712 257.118 74.875 257.624 73.2506 257.558C71.6167 257.626 70.0105 257.12 68.7106 256.128C67.4843 255.124 66.5629 253.798 66.0506 252.298C64.9042 248.881 64.9042 245.184 66.0506 241.768V241.808Z" fill="#6CAADD"/>
<path d="M95.9306 243.648C95.9117 242.427 96.2338 241.225 96.8606 240.178C97.4792 239.169 98.3561 238.344 99.4006 237.788C100.529 237.197 101.788 236.901 103.061 236.928C103.659 236.923 104.258 236.963 104.851 237.048C104.995 237.085 105.147 237.09 105.293 237.061C105.44 237.033 105.578 236.971 105.698 236.882C105.818 236.793 105.917 236.678 105.986 236.546C106.056 236.413 106.095 236.267 106.101 236.118V232.788C106.102 232.633 106.072 232.479 106.013 232.336C105.954 232.193 105.867 232.063 105.757 231.954C105.647 231.845 105.517 231.759 105.373 231.701C105.229 231.644 105.075 231.615 104.921 231.618C104.421 231.618 103.991 231.618 103.631 231.618C101.96 231.598 100.322 232.082 98.9306 233.008C97.568 233.912 96.5526 235.252 96.0506 236.808H95.7406V233.318C95.7406 233.148 95.7073 232.981 95.6424 232.824C95.5776 232.668 95.4826 232.525 95.3628 232.406C95.243 232.286 95.1008 232.191 94.9443 232.126C94.7878 232.061 94.62 232.028 94.4506 232.028H91.4506C91.1085 232.028 90.7804 232.164 90.5385 232.406C90.2965 232.648 90.1606 232.976 90.1606 233.318V260.588C90.1553 260.757 90.1834 260.926 90.2433 261.085C90.3033 261.243 90.3939 261.388 90.51 261.512C90.6261 261.635 90.7654 261.735 90.9199 261.805C91.0744 261.874 91.2412 261.913 91.4106 261.918H94.6406C94.81 261.918 94.9778 261.884 95.1343 261.82C95.2908 261.755 95.433 261.66 95.5528 261.54C95.6726 261.42 95.7676 261.278 95.8324 261.122C95.8972 260.965 95.9306 260.797 95.9306 260.628V243.648Z" fill="#6CAADD"/>
<path d="M122.171 254.318C122.11 255.905 122.54 257.473 123.401 258.808C124.193 259.98 125.308 260.896 126.611 261.448C127.959 262.022 129.415 262.302 130.881 262.268C131.663 262.269 132.443 262.196 133.211 262.048L133.431 261.998C133.598 261.963 133.757 261.896 133.898 261.8C134.039 261.704 134.159 261.58 134.253 261.437C134.346 261.294 134.409 261.133 134.44 260.965C134.47 260.797 134.467 260.625 134.431 260.458C134.431 260.458 133.861 257.908 133.801 257.578C133.784 257.468 133.743 257.363 133.681 257.272C133.618 257.18 133.536 257.103 133.44 257.047C133.344 256.992 133.237 256.958 133.126 256.95C133.015 256.941 132.904 256.958 132.801 256.998C132.395 257.076 131.983 257.109 131.571 257.098C130.971 257.104 130.375 257.003 129.811 256.798C129.254 256.577 128.791 256.171 128.501 255.648C128.114 254.86 127.941 253.984 128.001 253.108V236.688H132.831C133.173 236.688 133.501 236.552 133.743 236.31C133.985 236.068 134.121 235.74 134.121 235.398V233.318C134.121 232.976 133.985 232.648 133.743 232.406C133.501 232.164 133.173 232.028 132.831 232.028H128.001V226.168C128.001 225.998 127.967 225.829 127.901 225.672C127.836 225.515 127.74 225.372 127.619 225.252C127.498 225.132 127.355 225.037 127.197 224.973C127.04 224.909 126.871 224.877 126.701 224.878H123.481C123.31 224.877 123.142 224.909 122.984 224.973C122.826 225.037 122.683 225.132 122.562 225.252C122.441 225.372 122.345 225.515 122.28 225.672C122.214 225.829 122.181 225.998 122.181 226.168V232.028H119.101C118.758 232.028 118.43 232.164 118.188 232.406C117.947 232.648 117.811 232.976 117.811 233.318V235.398C117.811 235.74 117.947 236.068 118.188 236.31C118.43 236.552 118.758 236.688 119.101 236.688H122.181L122.171 254.318Z" fill="#6CAADD"/>
<path d="M142.351 244.158C142.31 242.747 142.63 241.35 143.281 240.098C143.856 239.015 144.74 238.127 145.821 237.548C146.955 236.952 148.22 236.649 149.501 236.668C150.37 236.619 151.24 236.757 152.052 237.07C152.864 237.384 153.6 237.867 154.211 238.488C155.408 239.908 156.013 241.734 155.901 243.588V260.588C155.901 260.93 156.037 261.258 156.278 261.5C156.52 261.742 156.848 261.878 157.191 261.878H160.421C160.763 261.878 161.091 261.742 161.333 261.5C161.575 261.258 161.711 260.93 161.711 260.588V242.918C161.779 240.771 161.345 238.637 160.441 236.688C159.658 235.099 158.409 233.787 156.861 232.928C155.207 232.059 153.359 231.625 151.491 231.668C149.512 231.577 147.55 232.071 145.851 233.088C144.422 234.015 143.304 235.349 142.641 236.918H142.271V223.368C142.271 223.026 142.135 222.698 141.893 222.456C141.651 222.214 141.323 222.078 140.981 222.078H137.831C137.488 222.078 137.16 222.214 136.918 222.456C136.677 222.698 136.541 223.026 136.541 223.368V260.588C136.541 260.93 136.677 261.258 136.918 261.5C137.16 261.742 137.488 261.878 137.831 261.878H141.061C141.403 261.878 141.731 261.742 141.973 261.5C142.215 261.258 142.351 260.93 142.351 260.588V244.158Z" fill="#6CAADD"/>
<path d="M189.691 254.148L186.691 253.598C186.42 253.552 186.141 253.593 185.895 253.715C185.649 253.837 185.448 254.034 185.321 254.278C185.025 254.834 184.644 255.34 184.191 255.778C183.517 256.416 182.716 256.903 181.841 257.208C180.873 257.528 179.86 257.687 178.841 257.678C177.286 257.716 175.749 257.336 174.391 256.578C173.094 255.839 172.048 254.728 171.391 253.388C170.716 251.917 170.375 250.316 170.391 248.698H190.301C190.47 248.699 190.639 248.667 190.796 248.602C190.953 248.538 191.096 248.443 191.216 248.323C191.336 248.203 191.431 248.06 191.495 247.903C191.56 247.746 191.592 247.578 191.591 247.408V246.638C191.648 244.288 191.282 241.948 190.511 239.728C189.871 237.979 188.846 236.396 187.511 235.098C186.297 233.931 184.848 233.038 183.261 232.478C181.687 231.92 180.03 231.636 178.361 231.638C175.842 231.555 173.354 232.214 171.206 233.533C169.058 234.852 167.345 236.773 166.281 239.058C165.091 241.586 164.502 244.355 164.561 247.148C164.493 249.942 165.082 252.713 166.281 255.238C167.359 257.46 169.062 259.319 171.181 260.588C173.491 261.897 176.116 262.55 178.771 262.478C180.756 262.512 182.73 262.173 184.591 261.478C186.203 260.872 187.656 259.908 188.841 258.658C189.61 257.852 190.232 256.918 190.681 255.898C190.754 255.719 190.786 255.525 190.773 255.332C190.761 255.139 190.705 254.951 190.61 254.783C190.515 254.614 190.383 254.47 190.223 254.36C190.064 254.25 189.882 254.177 189.691 254.148ZM171.311 240.748C171.954 239.483 172.92 238.41 174.111 237.638C175.382 236.82 176.869 236.402 178.381 236.438C179.759 236.396 181.121 236.742 182.311 237.438C183.423 238.119 184.329 239.09 184.931 240.248C185.569 241.508 185.888 242.906 185.861 244.318H170.361C170.423 243.074 170.747 241.858 171.311 240.748Z" fill="#6CAADD"/>
<path d="M229.111 246.268C231.166 245.352 232.893 243.831 234.061 241.908C235.244 239.838 235.836 237.482 235.771 235.098C235.828 232.7 235.248 230.329 234.091 228.228C232.954 226.264 231.254 224.686 229.211 223.698C226.801 222.568 224.16 222.02 221.501 222.098H207.091C206.748 222.098 206.42 222.234 206.178 222.476C205.937 222.718 205.801 223.046 205.801 223.388V260.608C205.801 260.95 205.937 261.278 206.178 261.52C206.42 261.762 206.748 261.898 207.091 261.898H212.921C213.264 261.898 213.593 261.762 213.836 261.521C214.08 261.279 214.218 260.951 214.221 260.608V247.788H220.361L227.531 261.218C227.641 261.424 227.806 261.596 228.006 261.716C228.207 261.836 228.437 261.898 228.671 261.898H235.001C235.225 261.898 235.445 261.839 235.639 261.728C235.833 261.617 235.996 261.457 236.11 261.265C236.224 261.072 236.286 260.853 236.289 260.629C236.293 260.405 236.238 260.184 236.131 259.988L228.721 246.418C228.861 246.368 229.001 246.328 229.111 246.268ZM214.221 228.978H219.891C221.259 228.934 222.621 229.176 223.891 229.688C224.893 230.097 225.732 230.825 226.281 231.758C226.838 232.78 227.111 233.934 227.071 235.098C227.113 236.243 226.84 237.378 226.281 238.378C225.733 239.292 224.895 239.996 223.901 240.378C222.623 240.856 221.264 241.08 219.901 241.038H214.191L214.221 228.978Z" fill="#6CAADD"/>
<path d="M262.221 235.428C260.95 234.176 259.426 233.211 257.751 232.598C255.984 231.959 254.119 231.641 252.241 231.658C249.561 231.595 246.916 232.265 244.591 233.598C242.442 234.896 240.708 236.78 239.591 239.028C238.411 241.574 237.8 244.347 237.8 247.153C237.8 249.959 238.411 252.732 239.591 255.278C240.724 257.521 242.5 259.376 244.691 260.608C247.123 261.91 249.853 262.555 252.611 262.478C254.836 262.518 257.048 262.134 259.131 261.348C260.903 260.668 262.487 259.574 263.751 258.158C264.567 257.233 265.21 256.17 265.651 255.018C265.725 254.827 265.753 254.622 265.733 254.419C265.714 254.215 265.647 254.019 265.538 253.846C265.429 253.673 265.281 253.528 265.107 253.423C264.932 253.317 264.734 253.254 264.531 253.238L259.351 252.898C259.11 252.882 258.869 252.935 258.657 253.05C258.444 253.165 258.269 253.337 258.151 253.548C257.908 253.993 257.597 254.398 257.231 254.748C256.661 255.282 255.977 255.678 255.231 255.908C254.414 256.176 253.56 256.308 252.701 256.298C251.448 256.33 250.21 256.03 249.111 255.428C248.103 254.845 247.289 253.979 246.771 252.938C246.193 251.746 245.908 250.432 245.941 249.108H264.941C265.283 249.108 265.611 248.972 265.853 248.73C266.095 248.488 266.231 248.16 266.231 247.818V246.818C266.274 244.552 265.912 242.296 265.161 240.158C264.536 238.386 263.533 236.772 262.221 235.428ZM246.001 243.918C246.038 242.887 246.319 241.879 246.821 240.978C247.355 240.018 248.135 239.218 249.081 238.658C250.092 238.075 251.243 237.778 252.411 237.798C253.522 237.771 254.621 238.044 255.591 238.588C256.494 239.094 257.238 239.842 257.741 240.748C258.273 241.718 258.542 242.811 258.521 243.918H246.001Z" fill="#6CAADD"/>
<path d="M286.081 244.558L280.681 243.478C279.621 243.317 278.614 242.909 277.741 242.288C277.471 242.07 277.255 241.794 277.108 241.481C276.96 241.167 276.886 240.824 276.891 240.478C276.893 240.034 277.018 239.6 277.251 239.223C277.484 238.846 277.816 238.539 278.211 238.338C279.197 237.77 280.323 237.489 281.461 237.528C282.308 237.508 283.15 237.669 283.931 237.998C284.585 238.283 285.164 238.718 285.621 239.268C285.841 239.54 286.026 239.839 286.171 240.158C286.277 240.406 286.457 240.617 286.685 240.761C286.914 240.906 287.18 240.978 287.451 240.968L292.551 240.648C292.74 240.638 292.925 240.585 293.092 240.495C293.258 240.405 293.403 240.278 293.515 240.125C293.627 239.972 293.703 239.796 293.739 239.61C293.775 239.423 293.768 239.231 293.721 239.048C293.168 237.029 291.936 235.262 290.231 234.048C288.064 232.461 285.094 231.665 281.321 231.658C279.046 231.611 276.783 231.994 274.651 232.788C272.909 233.424 271.379 234.532 270.231 235.988C269.164 237.432 268.615 239.193 268.671 240.988C268.636 242.001 268.806 243.011 269.172 243.956C269.538 244.901 270.092 245.763 270.801 246.488C272.621 248.112 274.884 249.156 277.301 249.488L282.471 250.488C283.5 250.639 284.481 251.022 285.341 251.608C285.642 251.815 285.891 252.09 286.064 252.412C286.238 252.734 286.333 253.092 286.341 253.458C286.326 253.909 286.194 254.348 285.957 254.732C285.72 255.116 285.387 255.432 284.991 255.648C283.883 256.223 282.651 256.514 281.403 256.497C280.155 256.479 278.932 256.153 277.841 255.548C277.157 255.103 276.629 254.457 276.331 253.698C276.217 253.446 276.029 253.235 275.79 253.095C275.552 252.956 275.276 252.894 275.001 252.918L269.371 253.208C269.178 253.216 268.99 253.267 268.82 253.358C268.65 253.449 268.503 253.577 268.39 253.733C268.276 253.889 268.199 254.068 268.165 254.258C268.131 254.447 268.139 254.642 268.191 254.828C268.805 256.952 270.142 258.795 271.971 260.038C274.311 261.698 277.461 262.518 281.411 262.518C283.759 262.562 286.093 262.144 288.281 261.288C290.125 260.573 291.746 259.383 292.981 257.838C294.125 256.368 294.732 254.551 294.701 252.688C294.739 251.717 294.568 250.748 294.199 249.849C293.83 248.95 293.271 248.141 292.561 247.478C290.702 245.94 288.464 244.932 286.081 244.558Z" fill="#6CAADD"/>
<path d="M311.821 255.528C311.435 255.604 311.043 255.641 310.651 255.638C310.149 255.65 309.65 255.565 309.181 255.388C308.749 255.224 308.393 254.907 308.181 254.498C307.92 253.946 307.8 253.338 307.831 252.728V238.268H312.161C312.503 238.268 312.831 238.132 313.073 237.89C313.315 237.648 313.451 237.32 313.451 236.978V233.338C313.451 232.996 313.315 232.668 313.073 232.426C312.831 232.184 312.503 232.048 312.161 232.048H307.831V226.188C307.831 225.846 307.695 225.518 307.453 225.276C307.211 225.034 306.883 224.898 306.541 224.898H300.841C300.671 224.898 300.503 224.931 300.347 224.996C300.19 225.061 300.048 225.156 299.928 225.276C299.809 225.395 299.714 225.538 299.649 225.694C299.584 225.851 299.551 226.018 299.551 226.188V232.048H296.761C296.418 232.048 296.09 232.184 295.848 232.426C295.607 232.668 295.471 232.996 295.471 233.338V236.978C295.471 237.32 295.607 237.648 295.848 237.89C296.09 238.132 296.418 238.268 296.761 238.268H299.551V253.808C299.474 255.514 299.902 257.204 300.781 258.668C301.615 259.959 302.837 260.953 304.271 261.508C305.936 262.147 307.72 262.42 309.501 262.308C310.422 262.285 311.339 262.178 312.241 261.988L312.791 261.848C313.114 261.769 313.395 261.568 313.572 261.286C313.749 261.004 313.81 260.664 313.741 260.338C313.741 260.338 312.931 256.558 312.861 256.158C312.791 255.758 312.541 255.388 311.821 255.528Z" fill="#6CAADD"/>
<path d="M350.111 233.588C347.699 232.32 345.015 231.658 342.291 231.658C339.566 231.658 336.882 232.32 334.471 233.588C332.288 234.859 330.522 236.739 329.391 238.998C328.212 241.527 327.601 244.283 327.601 247.073C327.601 249.863 328.212 252.619 329.391 255.148C330.524 257.403 332.289 259.279 334.471 260.548C336.882 261.815 339.566 262.478 342.291 262.478C345.015 262.478 347.699 261.815 350.111 260.548C352.291 259.275 354.058 257.4 355.201 255.148C356.373 252.617 356.98 249.862 356.98 247.073C356.98 244.284 356.373 241.528 355.201 238.998C354.062 236.741 352.294 234.862 350.111 233.588ZM347.861 251.678C347.468 252.918 346.745 254.027 345.771 254.888C344.808 255.691 343.583 256.111 342.331 256.068C341.063 256.109 339.823 255.69 338.841 254.888C337.853 254.032 337.12 252.922 336.721 251.678C335.787 248.652 335.787 245.414 336.721 242.388C337.122 241.139 337.855 240.023 338.841 239.158C339.823 238.356 341.063 237.937 342.331 237.978C343.583 237.935 344.808 238.355 345.771 239.158C346.744 240.028 347.466 241.143 347.861 242.388C348.807 245.412 348.807 248.654 347.861 251.678Z" fill="#6CAADD"/>
<path d="M370.141 227.688C370.476 227.369 370.878 227.128 371.316 226.981C371.755 226.835 372.221 226.786 372.681 226.838C373.168 226.818 373.656 226.866 374.131 226.978C374.28 227.035 374.44 227.058 374.599 227.046C374.759 227.035 374.913 226.988 375.053 226.91C375.192 226.831 375.312 226.724 375.405 226.594C375.498 226.464 375.562 226.315 375.591 226.158L376.511 222.298C376.55 222.129 376.556 221.954 376.527 221.783C376.498 221.612 376.435 221.448 376.342 221.302C376.248 221.156 376.127 221.03 375.984 220.931C375.841 220.832 375.68 220.763 375.511 220.728L374.441 220.518C373.288 220.318 372.12 220.221 370.951 220.228C369.225 220.204 367.516 220.57 365.951 221.298C364.49 221.991 363.273 223.11 362.461 224.508C361.557 226.153 361.118 228.013 361.191 229.888V232.048H358.261C357.918 232.048 357.59 232.184 357.348 232.426C357.107 232.668 356.971 232.996 356.971 233.338V236.978C356.971 237.32 357.107 237.648 357.348 237.89C357.59 238.132 357.918 238.268 358.261 238.268H361.191V261.918H369.451V238.268H374.101C374.443 238.268 374.771 238.132 375.013 237.89C375.255 237.648 375.391 237.32 375.391 236.978V233.338C375.391 232.996 375.255 232.668 375.013 232.426C374.771 232.184 374.443 232.048 374.101 232.048H369.451V230.048C369.389 229.204 369.634 228.366 370.141 227.688Z" fill="#6CAADD"/>
<path d="M415.111 247.228C415.132 248.626 414.788 250.005 414.111 251.228C413.447 252.398 412.47 253.361 411.291 254.008C409.969 254.672 408.51 255.018 407.031 255.018C405.551 255.018 404.092 254.672 402.771 254.008C401.586 253.364 400.605 252.401 399.941 251.228C399.264 250.005 398.919 248.626 398.941 247.228V223.388C398.941 223.046 398.805 222.718 398.563 222.476C398.321 222.234 397.993 222.098 397.651 222.098H391.821C391.479 222.098 391.15 222.234 390.908 222.476C390.667 222.718 390.531 223.046 390.531 223.388V247.918C390.448 250.569 391.147 253.186 392.539 255.444C393.931 257.701 395.955 259.501 398.361 260.618C401.09 261.812 404.037 262.428 407.016 262.428C409.995 262.428 412.941 261.812 415.671 260.618C418.082 259.505 420.113 257.708 421.51 255.45C422.908 253.191 423.61 250.572 423.531 247.918V223.388C423.528 223.045 423.39 222.717 423.146 222.475C422.903 222.233 422.574 222.098 422.231 222.098H416.401C416.058 222.098 415.73 222.234 415.488 222.476C415.247 222.718 415.111 223.046 415.111 223.388V247.228Z" fill="#6CAADD"/>
<path d="M450.791 247.438C448.924 245.915 446.683 244.92 444.301 244.558L438.901 243.478C437.841 243.317 436.834 242.909 435.961 242.288C435.691 242.07 435.475 241.794 435.328 241.481C435.18 241.167 435.106 240.824 435.111 240.478C435.113 240.034 435.238 239.6 435.471 239.223C435.704 238.846 436.036 238.539 436.431 238.338C437.303 237.871 438.266 237.599 439.253 237.54C440.241 237.481 441.229 237.638 442.151 237.998C442.801 238.286 443.376 238.721 443.831 239.268C444.054 239.54 444.242 239.839 444.391 240.158C444.497 240.405 444.675 240.614 444.901 240.758C445.128 240.903 445.392 240.976 445.661 240.968L450.761 240.648C450.951 240.639 451.137 240.588 451.305 240.498C451.473 240.408 451.619 240.282 451.732 240.129C451.845 239.976 451.922 239.799 451.958 239.612C451.995 239.425 451.988 239.232 451.941 239.048C451.385 237.031 450.153 235.265 448.451 234.048C446.277 232.461 443.307 231.665 439.541 231.658C437.263 231.611 434.996 231.994 432.861 232.788C431.121 233.422 429.593 234.53 428.451 235.988C427.384 237.432 426.835 239.193 426.891 240.988C426.854 242 427.022 243.01 427.387 243.955C427.751 244.901 428.304 245.762 429.011 246.488C430.832 248.11 433.095 249.154 435.511 249.488L440.681 250.488C441.713 250.638 442.698 251.021 443.561 251.608C443.854 251.819 444.093 252.097 444.258 252.419C444.423 252.74 444.51 253.096 444.511 253.458C444.5 253.91 444.369 254.351 444.132 254.736C443.895 255.12 443.56 255.435 443.161 255.648C442.094 256.257 440.877 256.551 439.651 256.498C438.373 256.55 437.109 256.219 436.021 255.548C435.334 255.104 434.803 254.457 434.501 253.698C434.402 253.441 434.226 253.222 433.996 253.071C433.766 252.921 433.495 252.846 433.221 252.858L427.601 253.148C427.408 253.156 427.22 253.208 427.05 253.299C426.879 253.39 426.732 253.517 426.618 253.673C426.504 253.828 426.426 254.007 426.39 254.197C426.354 254.386 426.361 254.581 426.411 254.768C427.032 256.891 428.372 258.733 430.201 259.978C432.541 261.638 435.681 262.458 439.631 262.458C441.979 262.503 444.314 262.085 446.501 261.228C448.348 260.514 449.973 259.323 451.211 257.778C452.351 256.306 452.957 254.49 452.931 252.628C452.965 251.66 452.791 250.696 452.422 249.801C452.053 248.906 451.497 248.1 450.791 247.438Z" fill="#6CAADD"/>
<path d="M226.461 189.698C224.734 189.702 223.037 189.25 221.541 188.388L148.321 146.118C146.824 145.249 145.582 144.004 144.717 142.505C143.852 141.007 143.394 139.308 143.391 137.578V53.0379C143.393 51.3088 143.85 49.6108 144.715 48.1137C145.58 46.6167 146.824 45.3733 148.321 44.5079L221.541 2.23786C223.038 1.37334 224.737 0.918213 226.466 0.918213C228.195 0.918213 229.893 1.37334 231.391 2.23786L304.611 44.5079C306.106 45.3738 307.348 46.6176 308.212 48.1147C309.075 49.6118 309.53 51.3096 309.531 53.0379V137.578C309.529 139.307 309.074 141.006 308.21 142.504C307.347 144.003 306.106 145.249 304.611 146.118L231.391 188.388C229.892 189.252 228.191 189.704 226.461 189.698ZM226.461 6.99786C225.801 6.99904 225.153 7.17132 224.581 7.49786L151.361 49.7679C150.789 50.1016 150.313 50.5788 149.982 51.1522C149.65 51.7256 149.474 52.3755 149.471 53.0379V137.578C149.472 138.241 149.648 138.891 149.979 139.465C150.311 140.039 150.787 140.516 151.361 140.848L224.581 183.118C225.154 183.447 225.804 183.62 226.466 183.62C227.127 183.62 227.777 183.447 228.351 183.118L301.571 140.848C302.143 140.515 302.618 140.038 302.948 139.464C303.278 138.89 303.451 138.24 303.451 137.578V53.0379C303.449 52.3763 303.275 51.7267 302.945 51.1531C302.615 50.5796 302.142 50.1021 301.571 49.7679L228.351 7.49786C227.775 7.17008 227.123 6.99777 226.461 6.99786Z" fill="#6CAADD"/>
<path d="M226.461 166.758C224.852 166.759 223.272 166.335 221.881 165.528L167.941 134.388C166.548 133.582 165.393 132.424 164.589 131.03C163.785 129.637 163.361 128.057 163.361 126.448V64.1679C163.362 62.5593 163.786 60.9794 164.59 59.5861C165.394 58.1927 166.549 57.0348 167.941 56.2279L221.881 25.0879C223.276 24.2869 224.857 23.8655 226.466 23.8655C228.074 23.8655 229.655 24.2869 231.051 25.0879L285.001 56.2279C286.393 57.0343 287.55 58.1919 288.356 59.5851C289.161 60.9784 289.587 62.5586 289.591 64.1679V126.448C289.588 128.057 289.162 129.638 288.357 131.031C287.551 132.425 286.394 133.582 285.001 134.388L231.071 165.528C229.67 166.338 228.079 166.762 226.461 166.758ZM226.461 29.9379C225.919 29.9387 225.388 30.0836 224.921 30.3579L171.001 61.4979C170.533 61.7692 170.144 62.1586 169.874 62.6271C169.604 63.0957 169.461 63.627 169.461 64.1679V126.448C169.461 126.99 169.604 127.523 169.874 127.993C170.144 128.463 170.533 128.854 171.001 129.128L224.941 160.268C225.411 160.538 225.943 160.68 226.486 160.68C227.028 160.68 227.561 160.538 228.031 160.268L281.961 129.128C282.431 128.856 282.822 128.466 283.094 127.995C283.366 127.525 283.51 126.991 283.511 126.448V64.1679C283.51 63.6258 283.366 63.0934 283.094 62.6246C282.822 62.1558 282.431 61.7671 281.961 61.4979L228.001 30.3579C227.535 30.0771 227.004 29.9252 226.461 29.9179V29.9379Z" fill="#6CAADD"/>
<path d="M226.461 143.788C224.971 143.79 223.508 143.397 222.221 142.648L187.581 122.648C186.293 121.9 185.224 120.828 184.481 119.538C183.737 118.249 183.344 116.787 183.341 115.298V75.2979C183.343 73.8089 183.735 72.3465 184.479 71.0567C185.223 69.7669 186.293 68.695 187.581 67.9479L222.221 47.9479C223.51 47.2055 224.972 46.8148 226.461 46.8148C227.949 46.8148 229.411 47.2055 230.701 47.9479L265.341 67.9479C266.629 68.695 267.698 69.7669 268.442 71.0567C269.186 72.3465 269.579 73.8089 269.581 75.2979V115.298C269.58 116.787 269.188 118.25 268.443 119.54C267.699 120.83 266.629 121.902 265.341 122.648L230.701 142.648C229.413 143.397 227.95 143.79 226.461 143.788ZM226.461 52.9179C226.039 52.9135 225.624 53.0241 225.261 53.2379L190.621 73.2379C190.255 73.451 189.953 73.7562 189.742 74.1229C189.531 74.4896 189.421 74.905 189.421 75.3279V115.328C189.422 115.749 189.534 116.162 189.744 116.527C189.955 116.892 190.257 117.196 190.621 117.408L225.261 137.408C225.625 137.619 226.039 137.731 226.461 137.731C226.882 137.731 227.296 137.619 227.661 137.408L262.301 117.408C262.664 117.196 262.966 116.892 263.177 116.527C263.387 116.162 263.499 115.749 263.501 115.328V75.3279C263.501 74.905 263.39 74.4896 263.179 74.1229C262.969 73.7562 262.666 73.451 262.301 73.2379L227.661 53.2379C227.297 53.0241 226.882 52.9135 226.461 52.9179Z" fill="#6CAADD"/>
</svg>